<svg width="507" height="361" viewBox="0 0 507 361" fill="none" xmlns="http://www.w3.org/2000/svg">
<path d="M119.038 250.919C115.15 250.906 111.279 250.405 107.516 249.429L106.774 249.224L106.086 248.879C81.2102 236.407 60.224 219.933 43.71 199.914C30.0399 183.246 19.3821 164.321 12.2158 143.99C3.64596 119.649 -0.476951 93.9652 0.0438398 68.1648C0.0543484 67.6233 0.0632419 67.2051 0.0632419 66.917C0.0632419 54.3753 7.02485 43.3709 17.7987 38.8817C26.0445 35.4459 100.912 4.69472 106.322 2.47286C116.509 -2.63166 127.377 1.62886 129.116 2.37391C133.018 3.9689 202.228 32.277 217.185 39.3988C232.599 46.7388 236.711 59.9249 236.711 66.559C236.711 96.5939 231.51 124.664 221.251 149.989C212.966 170.488 201.223 189.413 186.534 205.939C158.194 237.831 129.846 249.137 129.573 249.237C126.185 250.403 122.62 250.972 119.038 250.919ZM112.371 234.406C114.829 234.957 120.487 235.784 124.175 234.438C128.86 232.73 152.587 220.426 174.759 195.475C205.392 161.001 220.936 117.665 220.959 66.6698C220.904 65.6367 220.17 58.268 210.412 53.6215C195.746 46.6374 123.807 17.2218 123.082 16.9253L122.883 16.841C121.376 16.2093 116.578 14.8786 113.271 16.6117L112.608 16.9204C111.807 17.2498 32.3334 49.8911 23.8576 53.4226C17.9284 55.8931 15.8159 62.0132 15.8159 66.9171C15.8159 67.2754 15.8067 67.7967 15.7936 68.4705C15.1162 103.363 23.1906 189.224 112.371 234.406Z" fill="#3F3D56"/>
<path d="M109.616 9.63451C109.616 9.63451 29.4205 42.5719 20.8281 46.1521C12.2357 49.7322 7.93956 58.3246 7.93956 66.917C7.93956 75.5094 1.49529 187.628 109.616 241.838C109.616 241.838 119.429 244.553 126.874 241.838C134.319 239.122 228.835 193.296 228.835 66.559C228.835 66.559 228.835 53.6704 213.798 46.5101C198.762 39.3498 126.062 9.63451 126.062 9.63451C126.062 9.63451 117.134 5.69634 109.616 9.63451Z" fill="#FE0052"/>
<path opacity="0.1" d="M118.208 35.4117V211.121C118.208 211.121 37.2968 172.174 38.0128 69.7812L118.208 35.4117Z" fill="#120106"/>
<path d="M119.263 161.696L93.4891 128.556L108.478 116.898L120.682 132.59L161.91 89.0681L175.696 102.13L119.263 161.696Z" fill="white"/>
<path d="M505.694 361H270.179C270.015 361 269.857 360.935 269.741 360.819C269.625 360.703 269.56 360.546 269.56 360.382C269.56 360.218 269.625 360.061 269.741 359.945C269.857 359.829 270.015 359.764 270.179 359.764H505.694C505.858 359.764 506.015 359.829 506.131 359.945C506.247 360.061 506.312 360.218 506.312 360.382C506.312 360.546 506.247 360.703 506.131 360.819C506.015 360.935 505.858 361 505.694 361Z" fill="#CACACA"/>
<path d="M338.259 351.256L347.819 351.256L352.367 314.381L338.257 314.382L338.259 351.256Z" fill="#FFB8B8"/>
<path d="M335.82 348.135L354.647 348.134H354.648C357.83 348.134 360.882 349.398 363.132 351.648C365.382 353.898 366.646 356.95 366.646 360.132V360.522L335.821 360.523L335.82 348.135Z" fill="#CCCCCC"/>
<path d="M370.403 351.256L379.963 351.256L384.511 314.381L370.401 314.382L370.403 351.256Z" fill="#FFB8B8"/>
<path d="M367.964 348.135L386.791 348.134H386.792C389.974 348.134 393.026 349.398 395.276 351.648C397.526 353.898 398.79 356.95 398.79 360.132V360.522L367.964 360.523L367.964 348.135Z" fill="#CCCCCC"/>
<path d="M353.285 221.762L355.578 338.747L337.027 337.596L324.157 263.083L320.092 212.278L353.285 221.762Z" fill="#696871"/>
<path d="M385.122 202.117L387.722 340.601L366.087 339.983L361.413 257.664L353.285 227.858L320.092 212.278L325.512 175.022L374.284 174.344L385.122 202.117Z" fill="#696871"/>
<path d="M347.821 78.1541C356.984 78.1541 364.411 70.7265 364.411 61.564C364.411 52.4016 356.984 44.9739 347.821 44.9739C338.659 44.9739 331.231 52.4016 331.231 61.564C331.231 70.7265 338.659 78.1541 347.821 78.1541Z" fill="#FFB8B8"/>
<path d="M361.582 85.1429L364.123 88.9927L370.897 107.959L365.478 181.795L333.64 182.473L329.576 97.7983L338.09 87.1562L361.582 85.1429Z" fill="#CCCCCC"/>
<path d="M316.706 99.8307L311.286 99.1533C311.286 99.1533 309.932 99.8307 309.254 104.572C308.577 109.314 300.448 151.313 300.448 151.313L311.286 202.795L323.479 186.537L316.028 158.087L323.48 129.636L316.706 99.8307Z" fill="#696871"/>
<path d="M385.799 99.1538H389.864L400.025 154.022L390.541 196.698L381.058 181.118L383.767 164.183L382.413 149.281L377.671 140.474L385.799 99.1538Z" fill="#696871"/>
<path d="M357.625 61.564L354.608 60.8099C354.608 60.8099 352.346 47.9903 347.067 49.4985C341.789 51.0067 328.215 52.5149 328.215 46.4821C328.215 40.4493 341.035 35.1707 348.576 35.9248C356.117 36.6789 365.748 39.1806 368.182 50.2525C372.085 68.0015 360.13 72.4846 360.13 72.4846L360.329 71.8384C360.881 70.0441 360.921 68.131 360.443 66.3154C359.965 64.4998 358.989 62.854 357.625 61.564Z" fill="#2F2E41"/>
<path d="M311.964 99.1534L333.64 90.3472L338.721 86.6216L353.962 154.022L361.075 84.5894L389.187 99.1533L379.703 145.216L378.348 162.828L382.413 177.054C382.413 177.054 396.638 187.215 391.896 198.053C387.154 208.891 381.735 209.569 381.735 209.569C381.735 209.569 358.704 187.892 357.349 182.473C355.994 177.054 353.962 167.57 353.962 167.57C353.962 167.57 342.446 210.923 328.899 210.246C315.351 209.569 315.351 195.343 315.351 195.343L318.738 180.441L324.157 164.861L321.447 139.12L311.964 99.1534Z" fill="#696871"/>
</svg>
