<svg width="387" height="331" viewBox="0 0 387 331" fill="none" xmlns="http://www.w3.org/2000/svg">
<path d="M5.92013 2.36906H1.99609V8.64904H5.92013V2.36906Z" fill="#F17CA2"/>
<path d="M19.2619 0.799072H15.3379V7.07906H19.2619V0.799072Z" fill="#F17CA2"/>
<path d="M26.3252 0.799072H22.4011V7.07906H26.3252V0.799072Z" fill="#F17CA2"/>
<path d="M26.3252 19.639H22.4011V25.919H26.3252V19.639Z" fill="#F17CA2"/>
<path d="M34.1732 10.2191H30.2491V16.499H34.1732V10.2191Z" fill="#F17CA2"/>
<path d="M34.1732 20.424H30.2491V26.704H34.1732V20.424Z" fill="#F17CA2"/>
<path d="M26.3252 40.049H22.4011V46.3289H26.3252V40.049Z" fill="#F17CA2"/>
<path d="M34.1732 50.2539H30.2491V56.5339H34.1732V50.2539Z" fill="#F17CA2"/>
<path d="M26.3252 88.7188H22.4011V94.9988H26.3252V88.7188Z" fill="#F17CA2"/>
<path d="M19.2619 50.2539H15.3379V56.5339H19.2619V50.2539Z" fill="#F17CA2"/>
<path d="M5.92013 12.5741H1.99609V18.854H5.92013V12.5741Z" fill="#F17CA2"/>
<path d="M5.92013 110.699H1.99609V116.979H5.92013V110.699Z" fill="#F17CA2"/>
<path d="M5.92013 131.109H1.99609V137.389H5.92013V131.109Z" fill="#F17CA2"/>
<path d="M5.92013 141.314H1.99609V147.594H5.92013V141.314Z" fill="#F17CA2"/>
<path d="M5.92017 23.564H0.426514V24.349H5.92017V23.564Z" fill="#F17CA2"/>
<path d="M27.11 32.984H21.6163V33.769H27.11V32.984Z" fill="#F17CA2"/>
<path d="M5.92017 73.8039H0.426514V74.5889H5.92017V73.8039Z" fill="#F17CA2"/>
<path d="M5.92017 82.4388H0.426514V83.2238H5.92017V82.4388Z" fill="#F17CA2"/>
<path d="M27.11 132.679H21.6163V133.464H27.11V132.679Z" fill="#F17CA2"/>
<path d="M20.8316 151.519H15.3379V152.304H20.8316V151.519Z" fill="#F17CA2"/>
<path d="M1.99609 30.6292V32.199H3.5655V35.3391H1.99609V36.9089H5.92011V30.6292H1.99609Z" fill="#F17CA2"/>
<path d="M15.338 19.6392V21.209H16.9074V24.3491H15.338V25.9188H19.262V19.6392H15.338Z" fill="#F17CA2"/>
<path d="M30.2494 29.8438V31.4141H31.8188V34.5542H30.2494V36.1239H34.1734V29.8438H30.2494Z" fill="#F17CA2"/>
<path d="M30.2494 60.4591V62.0289H31.8188V65.169H30.2494V66.7387H34.1734V60.4591H30.2494Z" fill="#F17CA2"/>
<path d="M30.2494 70.6637V72.234H31.8188V75.3741H30.2494V76.9439H34.1734V70.6637H30.2494Z" fill="#F17CA2"/>
<path d="M30.2494 39.264V40.8338H31.8188V43.9739H30.2494V45.5442H34.1734V39.264H30.2494Z" fill="#F17CA2"/>
<path d="M22.4008 10.219V11.7893H23.9707V14.9288H22.4008V16.4991H26.3253V10.219H22.4008Z" fill="#F17CA2"/>
<path d="M26.3252 60.4589H22.4011V66.7389H26.3252V60.4589Z" fill="#F17CA2"/>
<path d="M26.3252 79.2988H22.4011V85.5788H26.3252V79.2988Z" fill="#F17CA2"/>
<path d="M22.4008 69.8789V71.4487H23.9707V74.5887H22.4008V76.159H26.3253V69.8789H22.4008Z" fill="#F17CA2"/>
<path d="M15.338 29.8438V31.4141H16.9074V34.5542H15.338V36.1239H19.262V29.8438H15.338Z" fill="#F17CA2"/>
<path d="M15.338 40.0489V41.6192H16.9074V44.7588H15.338V46.3291H19.262V40.0489H15.338Z" fill="#F17CA2"/>
<path d="M19.2619 70.6639H15.3379V76.9439H19.2619V70.6639Z" fill="#F17CA2"/>
<path d="M15.338 60.4591V62.0289H16.9074V65.169H15.338V66.7387H19.262V60.4591H15.338Z" fill="#F17CA2"/>
<path d="M19.2619 91.0739H15.3379V97.3538H19.2619V91.0739Z" fill="#F17CA2"/>
<path d="M15.338 80.8688V82.4386H16.9074V85.5787H15.338V87.149H19.262V80.8688H15.338Z" fill="#F17CA2"/>
<path d="M19.2619 111.484H15.3379V117.764H19.2619V111.484Z" fill="#F17CA2"/>
<path d="M26.3252 109.914H22.4011V116.194H26.3252V109.914Z" fill="#F17CA2"/>
<path d="M15.338 101.279V102.849H16.9074V105.989H15.338V107.559H19.262V101.279H15.338Z" fill="#F17CA2"/>
<path d="M30.2494 101.279V102.849H31.8188V105.989H30.2494V107.559H34.1734V101.279H30.2494Z" fill="#F17CA2"/>
<path d="M74.1983 10.2191H70.2743V16.499H74.1983V10.2191Z" fill="#F17CA2"/>
<path d="M74.1983 20.424H70.2743V26.704H74.1983V20.424Z" fill="#F17CA2"/>
<path d="M74.1983 50.2539H70.2743V56.5339H74.1983V50.2539Z" fill="#F17CA2"/>
<path d="M70.2742 29.8438V31.4141H71.8441V34.5542H70.2742V36.1239H74.1982V29.8438H70.2742Z" fill="#F17CA2"/>
<path d="M70.2742 60.4591V62.0289H71.8441V65.169H70.2742V66.7387H74.1982V60.4591H70.2742Z" fill="#F17CA2"/>
<path d="M70.2742 70.6637V72.234H71.8441V75.3741H70.2742V76.9439H74.1982V70.6637H70.2742Z" fill="#F17CA2"/>
<path d="M70.2742 39.264V40.8338H71.8441V43.9739H70.2742V45.5442H74.1982V39.264H70.2742Z" fill="#F17CA2"/>
<path d="M70.2742 101.279V102.849H71.8441V105.989H70.2742V107.559H74.1982V101.279H70.2742Z" fill="#F17CA2"/>
<path d="M19.2619 131.894H15.3379V138.174H19.2619V131.894Z" fill="#F17CA2"/>
<path d="M26.3252 120.119H22.4011V126.399H26.3252V120.119Z" fill="#F17CA2"/>
<path d="M19.2619 158.584H15.3379V164.864H19.2619V158.584Z" fill="#F17CA2"/>
<path d="M26.3252 139.744H22.4011V146.024H26.3252V139.744Z" fill="#F17CA2"/>
<path d="M15.338 121.689V123.259H16.9074V126.399H15.338V127.969H19.262V121.689H15.338Z" fill="#F17CA2"/>
<path d="M15.338 169.574V171.144H16.9074V174.284H15.338V175.853H19.262V169.574H15.338Z" fill="#F17CA2"/>
<path d="M62.4262 0.799072H58.5022V7.07906H62.4262V0.799072Z" fill="#F17CA2"/>
<path d="M62.4262 50.2539H58.5022V56.5339H62.4262V50.2539Z" fill="#F17CA2"/>
<path d="M63.9959 151.519H58.5022V152.304H63.9959V151.519Z" fill="#F17CA2"/>
<path d="M58.5022 19.6392V21.209H60.0721V24.3491H58.5022V25.9188H62.4262V19.6392H58.5022Z" fill="#F17CA2"/>
<path d="M58.5022 29.8438V31.4141H60.0721V34.5542H58.5022V36.1239H62.4262V29.8438H58.5022Z" fill="#F17CA2"/>
<path d="M58.5022 40.0489V41.6192H60.0721V44.7588H58.5022V46.3291H62.4262V40.0489H58.5022Z" fill="#F17CA2"/>
<path d="M62.4262 70.6639H58.5022V76.9439H62.4262V70.6639Z" fill="#F17CA2"/>
<path d="M58.5022 60.4591V62.0289H60.0721V65.169H58.5022V66.7387H62.4262V60.4591H58.5022Z" fill="#F17CA2"/>
<path d="M62.4262 91.0739H58.5022V97.3538H62.4262V91.0739Z" fill="#F17CA2"/>
<path d="M58.5022 80.8688V82.4386H60.0721V85.5787H58.5022V87.149H62.4262V80.8688H58.5022Z" fill="#F17CA2"/>
<path d="M62.4262 111.484H58.5022V117.764H62.4262V111.484Z" fill="#F17CA2"/>
<path d="M58.5022 101.279V102.849H60.0721V105.989H58.5022V107.559H62.4262V101.279H58.5022Z" fill="#F17CA2"/>
<path d="M62.4262 131.894H58.5022V138.174H62.4262V131.894Z" fill="#F17CA2"/>
<path d="M62.4262 158.584H58.5022V164.864H62.4262V158.584Z" fill="#F17CA2"/>
<path d="M58.5022 121.689V123.259H60.0721V126.399H58.5022V127.969H62.4262V121.689H58.5022Z" fill="#F17CA2"/>
<path d="M58.5022 169.574V171.144H60.0721V174.284H58.5022V175.853H62.4262V169.574H58.5022Z" fill="#F17CA2"/>
<path d="M81.2617 0.799072H77.3376V7.07906H81.2617V0.799072Z" fill="#F17CA2"/>
<path d="M81.2617 50.2539H77.3376V56.5339H81.2617V50.2539Z" fill="#F17CA2"/>
<path d="M82.8313 151.519H77.3376V152.304H82.8313V151.519Z" fill="#F17CA2"/>
<path d="M77.3374 19.6392V21.209H78.9073V24.3491H77.3374V25.9188H81.2614V19.6392H77.3374Z" fill="#F17CA2"/>
<path d="M77.3374 29.8438V31.4141H78.9073V34.5542H77.3374V36.1239H81.2614V29.8438H77.3374Z" fill="#F17CA2"/>
<path d="M77.3374 40.0489V41.6192H78.9073V44.7588H77.3374V46.3291H81.2614V40.0489H77.3374Z" fill="#F17CA2"/>
<path d="M81.2617 70.6639H77.3376V76.9439H81.2617V70.6639Z" fill="#F17CA2"/>
<path d="M77.3374 60.4591V62.0289H78.9073V65.169H77.3374V66.7387H81.2614V60.4591H77.3374Z" fill="#F17CA2"/>
<path d="M81.2617 91.0739H77.3376V97.3538H81.2617V91.0739Z" fill="#F17CA2"/>
<path d="M77.3374 80.8688V82.4386H78.9073V85.5787H77.3374V87.149H81.2614V80.8688H77.3374Z" fill="#F17CA2"/>
<path d="M81.2617 111.484H77.3376V117.764H81.2617V111.484Z" fill="#F17CA2"/>
<path d="M77.3374 101.279V102.849H78.9073V105.989H77.3374V107.559H81.2614V101.279H77.3374Z" fill="#F17CA2"/>
<path d="M81.2617 131.894H77.3376V138.174H81.2617V131.894Z" fill="#F17CA2"/>
<path d="M81.2617 158.584H77.3376V164.864H81.2617V158.584Z" fill="#F17CA2"/>
<path d="M77.3374 121.689V123.259H78.9073V126.399H77.3374V127.969H81.2614V121.689H77.3374Z" fill="#F17CA2"/>
<path d="M77.3374 169.574V171.144H78.9073V174.284H77.3374V175.853H81.2614V169.574H77.3374Z" fill="#F17CA2"/>
<path d="M22.4008 158.584V160.154H23.9707V163.294H22.4008V164.863H26.3253V158.584H22.4008Z" fill="#F17CA2"/>
<path d="M22.4008 168.789V170.359H23.9707V173.499H22.4008V175.068H26.3253V168.789H22.4008Z" fill="#F17CA2"/>
<path d="M1.99609 50.254V51.8238H3.5655V54.9639H1.99609V56.5342H5.92011V50.254H1.99609Z" fill="#F17CA2"/>
<path d="M1.99609 90.2891V91.8589H3.5655V94.9989H1.99609V96.5687H5.92011V90.2891H1.99609Z" fill="#F17CA2"/>
<path d="M1.99609 100.494V102.064H3.5655V105.204H1.99609V106.774H5.92011V100.494H1.99609Z" fill="#F17CA2"/>
<path d="M1.99609 120.904V122.474H3.5655V125.614H1.99609V127.184H5.92011V120.904H1.99609Z" fill="#F17CA2"/>
<path d="M1.99609 149.948V151.519H3.5655V154.659H1.99609V156.228H5.92011V149.948H1.99609Z" fill="#F17CA2"/>
<path d="M1.99609 158.584V160.154H3.5655V163.294H1.99609V164.863H5.92011V158.584H1.99609Z" fill="#F17CA2"/>
<path d="M46.7302 2.36906H42.8062V8.64904H46.7302V2.36906Z" fill="#F17CA2"/>
<path d="M46.7302 12.5741H42.8062V18.854H46.7302V12.5741Z" fill="#F17CA2"/>
<path d="M46.7301 23.564H41.2365V24.349H46.7301V23.564Z" fill="#F17CA2"/>
<path d="M46.7301 73.8039H41.2365V74.5889H46.7301V73.8039Z" fill="#F17CA2"/>
<path d="M46.7301 82.4388H41.2365V83.2238H46.7301V82.4388Z" fill="#F17CA2"/>
<path d="M42.8062 30.6292V32.199H44.3756V35.3391H42.8062V36.9089H46.7302V30.6292H42.8062Z" fill="#F17CA2"/>
<path d="M42.8062 50.254V51.8238H44.3756V54.9639H42.8062V56.5342H46.7302V50.254H42.8062Z" fill="#F17CA2"/>
<path d="M42.8062 90.2891V91.8589H44.3756V94.9989H42.8062V96.5687H46.7302V90.2891H42.8062Z" fill="#F17CA2"/>
<path d="M91.4641 70.6639H87.54V76.9439H91.4641V70.6639Z" fill="#F17CA2"/>
<path d="M91.4641 80.8688H87.54V87.1488H91.4641V80.8688Z" fill="#F17CA2"/>
<path d="M91.4641 91.8588H85.9705V92.6438H91.4641V91.8588Z" fill="#F17CA2"/>
<path d="M91.4641 142.099H85.9705V142.884H91.4641V142.099Z" fill="#F17CA2"/>
<path d="M91.4641 150.734H85.9705V151.519H91.4641V150.734Z" fill="#F17CA2"/>
<path d="M87.54 98.9239V100.494H89.1094V103.634H87.54V105.204H91.4641V98.9239H87.54Z" fill="#F17CA2"/>
<path d="M87.54 118.549V120.119H89.1094V123.259H87.54V124.829H91.4641V118.549H87.54Z" fill="#F17CA2"/>
<path d="M87.54 158.584V160.154H89.1094V163.294H87.54V164.863H91.4641V158.584H87.54Z" fill="#F17CA2"/>
<path d="M104.021 2.36906H100.097V8.64904H104.021V2.36906Z" fill="#F17CA2"/>
<path d="M117.363 0.799072H113.439V7.07906H117.363V0.799072Z" fill="#F17CA2"/>
<path d="M124.426 0.799072H120.502V7.07906H124.426V0.799072Z" fill="#F17CA2"/>
<path d="M124.426 19.639H120.502V25.919H124.426V19.639Z" fill="#F17CA2"/>
<path d="M132.274 10.2191H128.35V16.499H132.274V10.2191Z" fill="#F17CA2"/>
<path d="M132.274 20.424H128.35V26.704H132.274V20.424Z" fill="#F17CA2"/>
<path d="M124.426 40.049H120.502V46.3289H124.426V40.049Z" fill="#F17CA2"/>
<path d="M132.274 50.2539H128.35V56.5339H132.274V50.2539Z" fill="#F17CA2"/>
<path d="M124.426 88.7188H120.502V94.9988H124.426V88.7188Z" fill="#F17CA2"/>
<path d="M117.363 50.2539H113.439V56.5339H117.363V50.2539Z" fill="#F17CA2"/>
<path d="M104.021 12.5741H100.097V18.854H104.021V12.5741Z" fill="#F17CA2"/>
<path d="M104.021 110.699H100.097V116.979H104.021V110.699Z" fill="#F17CA2"/>
<path d="M104.021 131.109H100.097V137.389H104.021V131.109Z" fill="#F17CA2"/>
<path d="M104.021 141.314H100.097V147.594H104.021V141.314Z" fill="#F17CA2"/>
<path d="M104.021 23.564H98.5273V24.349H104.021V23.564Z" fill="#F17CA2"/>
<path d="M125.211 32.984H119.717V33.769H125.211V32.984Z" fill="#F17CA2"/>
<path d="M104.021 73.8039H98.5273V74.5889H104.021V73.8039Z" fill="#F17CA2"/>
<path d="M104.021 82.4388H98.5273V83.2238H104.021V82.4388Z" fill="#F17CA2"/>
<path d="M125.211 132.679H119.717V133.464H125.211V132.679Z" fill="#F17CA2"/>
<path d="M118.932 151.519H113.439V152.304H118.932V151.519Z" fill="#F17CA2"/>
<path d="M100.097 30.6292V32.199H101.667V35.3391H100.097V36.9089H104.021V30.6292H100.097Z" fill="#F17CA2"/>
<path d="M113.439 19.6392V21.209H115.008V24.3491H113.439V25.9188H117.363V19.6392H113.439Z" fill="#F17CA2"/>
<path d="M128.35 29.8438V31.4141H129.92V34.5542H128.35V36.1239H132.274V29.8438H128.35Z" fill="#F17CA2"/>
<path d="M128.35 60.4591V62.0289H129.92V65.169H128.35V66.7387H132.274V60.4591H128.35Z" fill="#F17CA2"/>
<path d="M128.35 70.6637V72.234H129.92V75.3741H128.35V76.9439H132.274V70.6637H128.35Z" fill="#F17CA2"/>
<path d="M128.35 39.264V40.8338H129.92V43.9739H128.35V45.5442H132.274V39.264H128.35Z" fill="#F17CA2"/>
<path d="M120.502 10.219V11.7893H122.071V14.9288H120.502V16.4991H124.426V10.219H120.502Z" fill="#F17CA2"/>
<path d="M124.426 60.4589H120.502V66.7389H124.426V60.4589Z" fill="#F17CA2"/>
<path d="M124.426 79.2988H120.502V85.5788H124.426V79.2988Z" fill="#F17CA2"/>
<path d="M120.502 69.8789V71.4487H122.071V74.5887H120.502V76.159H124.426V69.8789H120.502Z" fill="#F17CA2"/>
<path d="M113.439 29.8438V31.4141H115.008V34.5542H113.439V36.1239H117.363V29.8438H113.439Z" fill="#F17CA2"/>
<path d="M113.439 40.0489V41.6192H115.008V44.7588H113.439V46.3291H117.363V40.0489H113.439Z" fill="#F17CA2"/>
<path d="M117.363 70.6639H113.439V76.9439H117.363V70.6639Z" fill="#F17CA2"/>
<path d="M113.439 60.4591V62.0289H115.008V65.169H113.439V66.7387H117.363V60.4591H113.439Z" fill="#F17CA2"/>
<path d="M117.363 91.0739H113.439V97.3538H117.363V91.0739Z" fill="#F17CA2"/>
<path d="M113.439 80.8688V82.4386H115.008V85.5787H113.439V87.149H117.363V80.8688H113.439Z" fill="#F17CA2"/>
<path d="M117.363 111.484H113.439V117.764H117.363V111.484Z" fill="#F17CA2"/>
<path d="M124.426 109.914H120.502V116.194H124.426V109.914Z" fill="#F17CA2"/>
<path d="M113.439 101.279V102.849H115.008V105.989H113.439V107.559H117.363V101.279H113.439Z" fill="#F17CA2"/>
<path d="M128.35 101.279V102.849H129.92V105.989H128.35V107.559H132.274V101.279H128.35Z" fill="#F17CA2"/>
<path d="M172.299 10.2191H168.375V16.499H172.299V10.2191Z" fill="#F17CA2"/>
<path d="M172.299 20.424H168.375V26.704H172.299V20.424Z" fill="#F17CA2"/>
<path d="M172.299 50.2539H168.375V56.5339H172.299V50.2539Z" fill="#F17CA2"/>
<path d="M168.375 29.8438V31.4141H169.945V34.5542H168.375V36.1239H172.3V29.8438H168.375Z" fill="#F17CA2"/>
<path d="M168.375 60.4591V62.0289H169.945V65.169H168.375V66.7387H172.3V60.4591H168.375Z" fill="#F17CA2"/>
<path d="M168.375 70.6637V72.234H169.945V75.3741H168.375V76.9439H172.3V70.6637H168.375Z" fill="#F17CA2"/>
<path d="M168.375 39.264V40.8338H169.945V43.9739H168.375V45.5442H172.3V39.264H168.375Z" fill="#F17CA2"/>
<path d="M168.375 101.279V102.849H169.945V105.989H168.375V107.559H172.3V101.279H168.375Z" fill="#F17CA2"/>
<path d="M117.363 131.894H113.439V138.174H117.363V131.894Z" fill="#F17CA2"/>
<path d="M124.426 120.119H120.502V126.399H124.426V120.119Z" fill="#F17CA2"/>
<path d="M117.363 158.584H113.439V164.864H117.363V158.584Z" fill="#F17CA2"/>
<path d="M124.426 139.744H120.502V146.024H124.426V139.744Z" fill="#F17CA2"/>
<path d="M113.439 121.689V123.259H115.008V126.399H113.439V127.969H117.363V121.689H113.439Z" fill="#F17CA2"/>
<path d="M113.439 169.574V171.144H115.008V174.284H113.439V175.853H117.363V169.574H113.439Z" fill="#F17CA2"/>
<path d="M160.527 0.799072H156.603V7.07906H160.527V0.799072Z" fill="#F17CA2"/>
<path d="M160.527 50.2539H156.603V56.5339H160.527V50.2539Z" fill="#F17CA2"/>
<path d="M162.097 151.519H156.603V152.304H162.097V151.519Z" fill="#F17CA2"/>
<path d="M156.603 19.6392V21.209H158.173V24.3491H156.603V25.9188H160.527V19.6392H156.603Z" fill="#F17CA2"/>
<path d="M156.603 29.8438V31.4141H158.173V34.5542H156.603V36.1239H160.527V29.8438H156.603Z" fill="#F17CA2"/>
<path d="M156.603 40.0489V41.6192H158.173V44.7588H156.603V46.3291H160.527V40.0489H156.603Z" fill="#F17CA2"/>
<path d="M160.527 70.6639H156.603V76.9439H160.527V70.6639Z" fill="#F17CA2"/>
<path d="M156.603 60.4591V62.0289H158.173V65.169H156.603V66.7387H160.527V60.4591H156.603Z" fill="#F17CA2"/>
<path d="M160.527 91.0739H156.603V97.3538H160.527V91.0739Z" fill="#F17CA2"/>
<path d="M156.603 80.8688V82.4386H158.173V85.5787H156.603V87.149H160.527V80.8688H156.603Z" fill="#F17CA2"/>
<path d="M160.527 111.484H156.603V117.764H160.527V111.484Z" fill="#F17CA2"/>
<path d="M156.603 101.279V102.849H158.173V105.989H156.603V107.559H160.527V101.279H156.603Z" fill="#F17CA2"/>
<path d="M160.527 131.894H156.603V138.174H160.527V131.894Z" fill="#F17CA2"/>
<path d="M160.527 158.584H156.603V164.864H160.527V158.584Z" fill="#F17CA2"/>
<path d="M156.603 121.689V123.259H158.173V126.399H156.603V127.969H160.527V121.689H156.603Z" fill="#F17CA2"/>
<path d="M156.603 169.574V171.144H158.173V174.284H156.603V175.853H160.527V169.574H156.603Z" fill="#F17CA2"/>
<path d="M179.363 0.799072H175.438V7.07906H179.363V0.799072Z" fill="#F17CA2"/>
<path d="M179.363 50.2539H175.438V56.5339H179.363V50.2539Z" fill="#F17CA2"/>
<path d="M180.932 151.519H175.438V152.304H180.932V151.519Z" fill="#F17CA2"/>
<path d="M175.438 19.6392V21.209H177.008V24.3491H175.438V25.9188H179.362V19.6392H175.438Z" fill="#F17CA2"/>
<path d="M175.438 29.8438V31.4141H177.008V34.5542H175.438V36.1239H179.362V29.8438H175.438Z" fill="#F17CA2"/>
<path d="M175.438 40.0489V41.6192H177.008V44.7588H175.438V46.3291H179.362V40.0489H175.438Z" fill="#F17CA2"/>
<path d="M179.363 70.6639H175.438V76.9439H179.363V70.6639Z" fill="#F17CA2"/>
<path d="M175.438 60.4591V62.0289H177.008V65.169H175.438V66.7387H179.362V60.4591H175.438Z" fill="#F17CA2"/>
<path d="M179.363 91.0739H175.438V97.3538H179.363V91.0739Z" fill="#F17CA2"/>
<path d="M175.438 80.8688V82.4386H177.008V85.5787H175.438V87.149H179.362V80.8688H175.438Z" fill="#F17CA2"/>
<path d="M179.363 111.484H175.438V117.764H179.363V111.484Z" fill="#F17CA2"/>
<path d="M175.438 101.279V102.849H177.008V105.989H175.438V107.559H179.362V101.279H175.438Z" fill="#F17CA2"/>
<path d="M179.363 131.894H175.438V138.174H179.363V131.894Z" fill="#F17CA2"/>
<path d="M179.363 158.584H175.438V164.864H179.363V158.584Z" fill="#F17CA2"/>
<path d="M175.438 121.689V123.259H177.008V126.399H175.438V127.969H179.362V121.689H175.438Z" fill="#F17CA2"/>
<path d="M175.438 169.574V171.144H177.008V174.284H175.438V175.853H179.362V169.574H175.438Z" fill="#F17CA2"/>
<path d="M120.502 158.584V160.154H122.071V163.294H120.502V164.863H124.426V158.584H120.502Z" fill="#F17CA2"/>
<path d="M120.502 168.789V170.359H122.071V173.499H120.502V175.068H124.426V168.789H120.502Z" fill="#F17CA2"/>
<path d="M100.097 50.254V51.8238H101.667V54.9639H100.097V56.5342H104.021V50.254H100.097Z" fill="#F17CA2"/>
<path d="M100.097 90.2891V91.8589H101.667V94.9989H100.097V96.5687H104.021V90.2891H100.097Z" fill="#F17CA2"/>
<path d="M100.097 100.494V102.064H101.667V105.204H100.097V106.774H104.021V100.494H100.097Z" fill="#F17CA2"/>
<path d="M100.097 120.904V122.474H101.667V125.614H100.097V127.184H104.021V120.904H100.097Z" fill="#F17CA2"/>
<path d="M100.097 149.948V151.519H101.667V154.659H100.097V156.228H104.021V149.948H100.097Z" fill="#F17CA2"/>
<path d="M100.097 158.584V160.154H101.667V163.294H100.097V164.863H104.021V158.584H100.097Z" fill="#F17CA2"/>
<path d="M144.831 2.36906H140.907V8.64904H144.831V2.36906Z" fill="#F17CA2"/>
<path d="M144.831 12.5741H140.907V18.854H144.831V12.5741Z" fill="#F17CA2"/>
<path d="M144.831 23.564H139.337V24.349H144.831V23.564Z" fill="#F17CA2"/>
<path d="M144.831 73.8039H139.337V74.5889H144.831V73.8039Z" fill="#F17CA2"/>
<path d="M144.831 82.4388H139.337V83.2238H144.831V82.4388Z" fill="#F17CA2"/>
<path d="M140.907 30.6292V32.199H142.477V35.3391H140.907V36.9089H144.831V30.6292H140.907Z" fill="#F17CA2"/>
<path d="M140.907 50.254V51.8238H142.477V54.9639H140.907V56.5342H144.831V50.254H140.907Z" fill="#F17CA2"/>
<path d="M140.907 90.2891V91.8589H142.477V94.9989H140.907V96.5687H144.831V90.2891H140.907Z" fill="#F17CA2"/>
<path d="M189.565 70.6639H185.641V76.9439H189.565V70.6639Z" fill="#F17CA2"/>
<path d="M189.565 80.8688H185.641V87.1488H189.565V80.8688Z" fill="#F17CA2"/>
<path d="M189.565 91.8588H184.071V92.6438H189.565V91.8588Z" fill="#F17CA2"/>
<path d="M189.565 142.099H184.071V142.884H189.565V142.099Z" fill="#F17CA2"/>
<path d="M189.565 150.734H184.071V151.519H189.565V150.734Z" fill="#F17CA2"/>
<path d="M185.641 98.9239V100.494H187.211V103.634H185.641V105.204H189.565V98.9239H185.641Z" fill="#F17CA2"/>
<path d="M185.641 118.549V120.119H187.211V123.259H185.641V124.829H189.565V118.549H185.641Z" fill="#F17CA2"/>
<path d="M185.641 158.584V160.154H187.211V163.294H185.641V164.863H189.565V158.584H185.641Z" fill="#F17CA2"/>
<path d="M202.122 2.36906H198.198V8.64904H202.122V2.36906Z" fill="#F17CA2"/>
<path d="M215.464 0.799072H211.54V7.07906H215.464V0.799072Z" fill="#F17CA2"/>
<path d="M222.527 0.799072H218.603V7.07906H222.527V0.799072Z" fill="#F17CA2"/>
<path d="M222.527 19.639H218.603V25.919H222.527V19.639Z" fill="#F17CA2"/>
<path d="M230.375 10.2191H226.451V16.499H230.375V10.2191Z" fill="#F17CA2"/>
<path d="M230.375 20.424H226.451V26.704H230.375V20.424Z" fill="#F17CA2"/>
<path d="M222.527 40.049H218.603V46.3289H222.527V40.049Z" fill="#F17CA2"/>
<path d="M230.375 50.2539H226.451V56.5339H230.375V50.2539Z" fill="#F17CA2"/>
<path d="M222.527 88.7188H218.603V94.9988H222.527V88.7188Z" fill="#F17CA2"/>
<path d="M215.464 50.2539H211.54V56.5339H215.464V50.2539Z" fill="#F17CA2"/>
<path d="M202.122 12.5741H198.198V18.854H202.122V12.5741Z" fill="#F17CA2"/>
<path d="M202.122 110.699H198.198V116.979H202.122V110.699Z" fill="#F17CA2"/>
<path d="M202.122 131.109H198.198V137.389H202.122V131.109Z" fill="#F17CA2"/>
<path d="M202.122 141.314H198.198V147.594H202.122V141.314Z" fill="#F17CA2"/>
<path d="M202.122 23.564H196.628V24.349H202.122V23.564Z" fill="#F17CA2"/>
<path d="M223.312 32.984H217.818V33.769H223.312V32.984Z" fill="#F17CA2"/>
<path d="M202.122 73.8039H196.628V74.5889H202.122V73.8039Z" fill="#F17CA2"/>
<path d="M202.122 82.4388H196.628V83.2238H202.122V82.4388Z" fill="#F17CA2"/>
<path d="M223.312 132.679H217.818V133.464H223.312V132.679Z" fill="#F17CA2"/>
<path d="M217.033 151.519H211.54V152.304H217.033V151.519Z" fill="#F17CA2"/>
<path d="M198.198 30.6292V32.199H199.768V35.3391H198.198V36.9089H202.122V30.6292H198.198Z" fill="#F17CA2"/>
<path d="M211.54 19.6392V21.209H213.109V24.3491H211.54V25.9188H215.464V19.6392H211.54Z" fill="#F17CA2"/>
<path d="M226.451 29.8438V31.4141H228.02V34.5542H226.451V36.1239H230.375V29.8438H226.451Z" fill="#F17CA2"/>
<path d="M226.451 60.4591V62.0289H228.02V65.169H226.451V66.7387H230.375V60.4591H226.451Z" fill="#F17CA2"/>
<path d="M226.451 70.6637V72.234H228.02V75.3741H226.451V76.9439H230.375V70.6637H226.451Z" fill="#F17CA2"/>
<path d="M226.451 39.264V40.8338H228.02V43.9739H226.451V45.5442H230.375V39.264H226.451Z" fill="#F17CA2"/>
<path d="M218.603 10.219V11.7893H220.172V14.9288H218.603V16.4991H222.527V10.219H218.603Z" fill="#F17CA2"/>
<path d="M222.527 60.4589H218.603V66.7389H222.527V60.4589Z" fill="#F17CA2"/>
<path d="M222.527 79.2988H218.603V85.5788H222.527V79.2988Z" fill="#F17CA2"/>
<path d="M218.603 69.8789V71.4487H220.172V74.5887H218.603V76.159H222.527V69.8789H218.603Z" fill="#F17CA2"/>
<path d="M211.54 29.8438V31.4141H213.109V34.5542H211.54V36.1239H215.464V29.8438H211.54Z" fill="#F17CA2"/>
<path d="M211.54 40.0489V41.6192H213.109V44.7588H211.54V46.3291H215.464V40.0489H211.54Z" fill="#F17CA2"/>
<path d="M215.464 70.6639H211.54V76.9439H215.464V70.6639Z" fill="#F17CA2"/>
<path d="M211.54 60.4591V62.0289H213.109V65.169H211.54V66.7387H215.464V60.4591H211.54Z" fill="#F17CA2"/>
<path d="M215.464 91.0739H211.54V97.3538H215.464V91.0739Z" fill="#F17CA2"/>
<path d="M211.54 80.8688V82.4386H213.109V85.5787H211.54V87.149H215.464V80.8688H211.54Z" fill="#F17CA2"/>
<path d="M215.464 111.484H211.54V117.764H215.464V111.484Z" fill="#F17CA2"/>
<path d="M222.527 109.914H218.603V116.194H222.527V109.914Z" fill="#F17CA2"/>
<path d="M211.54 101.279V102.849H213.109V105.989H211.54V107.559H215.464V101.279H211.54Z" fill="#F17CA2"/>
<path d="M270.4 10.2191H266.476V16.499H270.4V10.2191Z" fill="#F17CA2"/>
<path d="M270.4 20.424H266.476V26.704H270.4V20.424Z" fill="#F17CA2"/>
<path d="M270.4 50.2539H266.476V56.5339H270.4V50.2539Z" fill="#F17CA2"/>
<path d="M266.476 29.8438V31.4141H268.046V34.5542H266.476V36.1239H270.4V29.8438H266.476Z" fill="#F17CA2"/>
<path d="M266.476 60.4591V62.0289H268.046V65.169H266.476V66.7387H270.4V60.4591H266.476Z" fill="#F17CA2"/>
<path d="M266.476 70.6637V72.234H268.046V75.3741H266.476V76.9439H270.4V70.6637H266.476Z" fill="#F17CA2"/>
<path d="M266.476 39.264V40.8338H268.046V43.9739H266.476V45.5442H270.4V39.264H266.476Z" fill="#F17CA2"/>
<path d="M266.476 101.279V102.849H268.046V105.989H266.476V107.559H270.4V101.279H266.476Z" fill="#F17CA2"/>
<path d="M215.464 131.894H211.54V138.174H215.464V131.894Z" fill="#F17CA2"/>
<path d="M222.527 120.119H218.603V126.399H222.527V120.119Z" fill="#F17CA2"/>
<path d="M215.464 158.584H211.54V164.864H215.464V158.584Z" fill="#F17CA2"/>
<path d="M222.527 139.744H218.603V146.024H222.527V139.744Z" fill="#F17CA2"/>
<path d="M211.54 121.689V123.259H213.109V126.399H211.54V127.969H215.464V121.689H211.54Z" fill="#F17CA2"/>
<path d="M211.54 169.574V171.144H213.109V174.284H211.54V175.853H215.464V169.574H211.54Z" fill="#F17CA2"/>
<path d="M258.628 0.799072H254.704V7.07906H258.628V0.799072Z" fill="#F17CA2"/>
<path d="M258.628 50.2539H254.704V56.5339H258.628V50.2539Z" fill="#F17CA2"/>
<path d="M260.198 151.519H254.704V152.304H260.198V151.519Z" fill="#F17CA2"/>
<path d="M254.704 19.6392V21.209H256.274V24.3491H254.704V25.9188H258.628V19.6392H254.704Z" fill="#F17CA2"/>
<path d="M254.704 29.8438V31.4141H256.274V34.5542H254.704V36.1239H258.628V29.8438H254.704Z" fill="#F17CA2"/>
<path d="M254.704 40.0489V41.6192H256.274V44.7588H254.704V46.3291H258.628V40.0489H254.704Z" fill="#F17CA2"/>
<path d="M258.628 70.6639H254.704V76.9439H258.628V70.6639Z" fill="#F17CA2"/>
<path d="M254.704 60.4591V62.0289H256.274V65.169H254.704V66.7387H258.628V60.4591H254.704Z" fill="#F17CA2"/>
<path d="M258.628 91.0739H254.704V97.3538H258.628V91.0739Z" fill="#F17CA2"/>
<path d="M254.704 80.8688V82.4386H256.274V85.5787H254.704V87.149H258.628V80.8688H254.704Z" fill="#F17CA2"/>
<path d="M258.628 111.484H254.704V117.764H258.628V111.484Z" fill="#F17CA2"/>
<path d="M254.704 101.279V102.849H256.274V105.989H254.704V107.559H258.628V101.279H254.704Z" fill="#F17CA2"/>
<path d="M258.628 131.894H254.704V138.174H258.628V131.894Z" fill="#F17CA2"/>
<path d="M258.628 158.584H254.704V164.864H258.628V158.584Z" fill="#F17CA2"/>
<path d="M254.704 121.689V123.259H256.274V126.399H254.704V127.969H258.628V121.689H254.704Z" fill="#F17CA2"/>
<path d="M254.704 169.574V171.144H256.274V174.284H254.704V175.853H258.628V169.574H254.704Z" fill="#F17CA2"/>
<path d="M277.463 0.799072H273.539V7.07906H277.463V0.799072Z" fill="#F17CA2"/>
<path d="M277.463 50.2539H273.539V56.5339H277.463V50.2539Z" fill="#F17CA2"/>
<path d="M279.033 151.519H273.539V152.304H279.033V151.519Z" fill="#F17CA2"/>
<path d="M273.54 19.6392V21.209H275.109V24.3491H273.54V25.9188H277.464V19.6392H273.54Z" fill="#F17CA2"/>
<path d="M273.54 29.8438V31.4141H275.109V34.5542H273.54V36.1239H277.464V29.8438H273.54Z" fill="#F17CA2"/>
<path d="M273.54 40.0489V41.6192H275.109V44.7588H273.54V46.3291H277.464V40.0489H273.54Z" fill="#F17CA2"/>
<path d="M277.463 70.6639H273.539V76.9439H277.463V70.6639Z" fill="#F17CA2"/>
<path d="M273.54 60.4591V62.0289H275.109V65.169H273.54V66.7387H277.464V60.4591H273.54Z" fill="#F17CA2"/>
<path d="M277.463 91.0739H273.539V97.3538H277.463V91.0739Z" fill="#F17CA2"/>
<path d="M273.54 80.8688V82.4386H275.109V85.5787H273.54V87.149H277.464V80.8688H273.54Z" fill="#F17CA2"/>
<path d="M277.463 111.484H273.539V117.764H277.463V111.484Z" fill="#F17CA2"/>
<path d="M273.54 101.279V102.849H275.109V105.989H273.54V107.559H277.464V101.279H273.54Z" fill="#F17CA2"/>
<path d="M277.463 131.894H273.539V138.174H277.463V131.894Z" fill="#F17CA2"/>
<path d="M277.463 158.584H273.539V164.864H277.463V158.584Z" fill="#F17CA2"/>
<path d="M273.54 121.689V123.259H275.109V126.399H273.54V127.969H277.464V121.689H273.54Z" fill="#F17CA2"/>
<path d="M273.54 169.574V171.144H275.109V174.284H273.54V175.853H277.464V169.574H273.54Z" fill="#F17CA2"/>
<path d="M218.603 158.584V160.154H220.172V163.294H218.603V164.863H222.527V158.584H218.603Z" fill="#F17CA2"/>
<path d="M218.603 168.789V170.359H220.172V173.499H218.603V175.068H222.527V168.789H218.603Z" fill="#F17CA2"/>
<path d="M198.198 50.254V51.8238H199.768V54.9639H198.198V56.5342H202.122V50.254H198.198Z" fill="#F17CA2"/>
<path d="M198.198 90.2891V91.8589H199.768V94.9989H198.198V96.5687H202.122V90.2891H198.198Z" fill="#F17CA2"/>
<path d="M198.198 100.494V102.064H199.768V105.204H198.198V106.774H202.122V100.494H198.198Z" fill="#F17CA2"/>
<path d="M198.198 120.904V122.474H199.768V125.614H198.198V127.184H202.122V120.904H198.198Z" fill="#F17CA2"/>
<path d="M198.198 149.948V151.519H199.768V154.659H198.198V156.228H202.122V149.948H198.198Z" fill="#F17CA2"/>
<path d="M198.198 158.584V160.154H199.768V163.294H198.198V164.863H202.122V158.584H198.198Z" fill="#F17CA2"/>
<path d="M242.932 2.36906H239.008V8.64904H242.932V2.36906Z" fill="#F17CA2"/>
<path d="M242.932 12.5741H239.008V18.854H242.932V12.5741Z" fill="#F17CA2"/>
<path d="M242.932 23.564H237.438V24.349H242.932V23.564Z" fill="#F17CA2"/>
<path d="M242.932 73.8039H237.438V74.5889H242.932V73.8039Z" fill="#F17CA2"/>
<path d="M242.932 82.4388H237.438V83.2238H242.932V82.4388Z" fill="#F17CA2"/>
<path d="M239.008 30.6292V32.199H240.578V35.3391H239.008V36.9089H242.932V30.6292H239.008Z" fill="#F17CA2"/>
<path d="M239.008 50.254V51.8238H240.578V54.9639H239.008V56.5342H242.932V50.254H239.008Z" fill="#F17CA2"/>
<path d="M239.008 90.2891V91.8589H240.578V94.9989H239.008V96.5687H242.932V90.2891H239.008Z" fill="#F17CA2"/>
<path d="M287.666 70.6639H283.742V76.9439H287.666V70.6639Z" fill="#F17CA2"/>
<path d="M287.666 80.8688H283.742V87.1488H287.666V80.8688Z" fill="#F17CA2"/>
<path d="M287.666 91.8588H282.172V92.6438H287.666V91.8588Z" fill="#F17CA2"/>
<path d="M287.666 142.099H282.172V142.884H287.666V142.099Z" fill="#F17CA2"/>
<path d="M287.666 150.734H282.172V151.519H287.666V150.734Z" fill="#F17CA2"/>
<path d="M283.742 98.9239V100.494H285.312V103.634H283.742V105.204H287.666V98.9239H283.742Z" fill="#F17CA2"/>
<path d="M283.742 118.549V120.119H285.312V123.259H283.742V124.829H287.666V118.549H283.742Z" fill="#F17CA2"/>
<path d="M283.742 158.584V160.154H285.312V163.294H283.742V164.863H287.666V158.584H283.742Z" fill="#F17CA2"/>
<path d="M165.66 85.5286C166.502 85.5286 167.185 84.8454 167.185 84.0026C167.185 83.1598 166.502 82.4765 165.66 82.4765C164.817 82.4765 164.134 83.1598 164.134 84.0026C164.134 84.8454 164.817 85.5286 165.66 85.5286Z" fill="#F17CA2"/>
<path d="M166.168 84.0025H165.151V107.91H166.168V84.0025Z" fill="#F17CA2"/>
<path d="M226.897 102.664V104.235H228.467V107.375H226.897V108.945H230.821V102.664H226.897Z" fill="#F17CA2"/>
<path d="M118.048 175.679V202.13L121.608 218.408C121.608 218.408 121.099 228.581 121.608 231.633C122.116 234.686 121.099 239.772 118.048 239.772C114.997 239.772 113.471 247.402 113.471 247.402C113.471 247.402 112.454 250.455 109.911 250.963C107.368 251.472 107.368 250.963 107.368 250.963L105.334 256.05L63.124 284.027L71.2609 304.374C71.2609 304.374 83.9748 299.796 84.9919 298.27C86.009 296.744 94.6544 300.305 94.6544 296.744C94.6544 293.184 96.1801 284.027 99.2314 283.519C102.283 283.01 127.71 271.31 127.71 271.31C127.71 271.31 140.933 256.559 141.95 250.963C142.967 245.368 147.544 229.599 147.544 229.599L160.258 250.963V293.692L158.224 316.583L180.6 313.531C180.6 313.531 178.566 299.288 180.6 297.253C182.634 295.218 185.686 270.802 183.652 267.75C181.617 264.698 184.669 250.963 183.652 248.929C182.634 246.894 183.143 232.142 180.6 228.073C178.057 224.003 162.801 182.292 162.801 182.292L118.048 175.679Z" fill="#696871"/>
<path d="M161.275 315.565C161.275 315.565 153.647 328.282 158.732 329.808C163.818 331.334 173.48 329.808 174.498 329.808C175.515 329.808 193.823 330.317 193.823 330.317C193.823 330.317 206.028 327.774 206.028 324.213C206.028 320.652 198.4 320.652 195.857 320.144C193.314 319.635 177.549 313.531 177.549 313.531L161.275 315.565Z" fill="#CCCCCC"/>
<path d="M65.4595 284.601C65.4595 284.601 50.7611 282.654 51.3824 287.929C52.0038 293.203 57.2444 301.465 57.6486 302.398C57.9224 303.031 61.1345 311.035 63.1793 316.136C64.6573 319.875 66.8778 323.276 69.7068 326.132C71.706 328.131 73.8851 329.733 75.3142 329.114C78.5808 327.699 75.5488 320.697 75.0048 318.161C74.4608 315.625 73.7945 298.729 73.7945 298.729L65.4595 284.601Z" fill="#CCCCCC"/>
<path d="M167.632 91.4925L183.906 53.8503C183.906 53.8503 182.38 50.2896 178.82 50.7983C178.82 50.7983 173.989 38.3356 164.835 38.3356C164.835 38.3356 151.104 30.7055 147.036 38.3356C147.036 38.3356 138.39 45.9658 138.899 53.0873C139.407 60.2088 139.916 65.2956 139.916 65.2956C139.916 65.2956 131.779 66.313 133.305 70.3824C134.83 74.4518 135.339 74.4518 133.305 75.9779L131.27 77.5039C131.27 77.5039 89.0603 115.655 112.454 171.609L114.488 180.257V188.396C114.488 188.396 165.852 188.904 165.852 188.396C165.852 187.887 164.835 184.835 166.869 182.8C168.903 180.766 168.903 177.714 168.903 177.714C168.903 177.714 166.869 167.54 167.886 164.488C168.903 161.436 169.412 148.21 167.378 145.158C165.344 142.106 166.361 117.689 166.361 117.689L170.938 109.042L169.412 103.955L167.886 98.8684L167.632 91.4925Z" fill="#CCCCCC"/>
<path opacity="0.1" d="M163.309 193.483C163.309 193.483 157.207 176.696 157.715 173.644C158.224 170.592 156.698 164.488 156.698 164.488L154.664 123.285C154.664 123.285 163.309 86.6601 143.984 80.556C143.984 80.556 139.094 82.6902 135.088 89.558C131.126 91.3232 126.318 95.7905 125.168 107.007C123.134 126.846 132.288 177.714 136.865 186.361C141.442 195.009 144.493 201.113 144.493 201.113L149.277 198.986C149.474 199.378 149.578 199.587 149.578 199.587L163.309 193.483Z" fill="black"/>
<path d="M147.798 195.263L151.867 203.91C151.867 203.91 161.021 200.858 161.021 199.332C161.021 197.806 156.952 191.194 156.952 191.194L147.798 195.263Z" fill="#FFB8B8"/>
<path d="M141.95 80.556C141.95 80.556 130.253 85.6428 128.219 105.481C126.185 125.32 135.339 176.188 139.916 184.835C144.493 193.483 147.544 199.587 147.544 199.587L161.275 193.483C161.275 193.483 155.172 176.696 155.681 173.644C156.19 170.592 154.664 164.488 154.664 164.488L152.63 123.285C152.63 123.285 161.275 86.6601 141.95 80.556Z" fill="#CCCCCC"/>
<path d="M387 330H11V331H387V330Z" fill="#888A8B"/>
</svg>
